<svg width="32" height="32" viewBox="0 0 32 32" fill="none" xmlns="http://www.w3.org/2000/svg">
<g clip-path="url(#clip0_21_202)">
<path d="M21.7061 31.7883C27.2179 31.7883 31.6949 27.2983 31.7262 21.8167L31.7883 13.7457L31.6949 13.3066L31.4301 12.7541L30.9822 12.4078C30.4009 11.9515 27.4536 12.4387 26.6601 11.7179C26.097 11.2037 26.0092 10.2746 25.8389 9.01539C25.5224 6.57666 25.3222 6.4495 24.94 5.62266C23.5533 2.68691 19.7879 0.480712 17.2013 0.175827H10.1945C4.68238 0.175827 0.175842 4.67253 0.175842 10.1647V21.8167C0.175842 27.2983 4.68238 31.7883 10.1945 31.7883H21.7061ZM10.3221 8.33642H15.8771C16.9378 8.33642 17.7967 9.19733 17.7967 10.2437C17.7967 11.2859 16.9378 12.1538 15.8771 12.1538H10.3221C9.26128 12.1538 8.40423 11.2855 8.40423 10.2437C8.40423 9.19733 9.26128 8.33642 10.3221 8.33642ZM8.40423 21.6692C8.40423 20.6231 9.26128 19.7686 10.3221 19.7686H21.6095C22.6632 19.7686 23.5189 20.6231 23.5189 21.6692C23.5189 22.7011 22.6632 23.5694 21.6095 23.5694H10.3221C9.26128 23.5694 8.40423 22.7015 8.40423 21.6692Z" fill="#1D1B1A"/>
</g>
<defs>
<clipPath id="clip0_21_202">
<rect width="32" height="32" fill="white"/>
</clipPath>
</defs>
</svg>
