<svg width="32" height="32" viewBox="0 0 32 32" fill="none" xmlns="http://www.w3.org/2000/svg">
<path fill-rule="evenodd" clip-rule="evenodd" d="M1.33334 3.78392C1.33334 3.13396 1.59154 2.51063 2.05113 2.05104C2.51072 1.59145 3.13405 1.33326 3.78401 1.33326H28.2133C28.5354 1.33273 28.8545 1.39574 29.1522 1.51868C29.4499 1.64162 29.7205 1.82207 29.9483 2.0497C30.1762 2.27734 30.357 2.54769 30.4802 2.84527C30.6035 3.14285 30.6669 3.46182 30.6667 3.78392V28.2133C30.667 28.5354 30.6039 28.8545 30.4808 29.1522C30.3577 29.4499 30.1771 29.7205 29.9494 29.9483C29.7216 30.1762 29.4512 30.3569 29.1535 30.4802C28.8559 30.6034 28.5368 30.6668 28.2147 30.6666H3.78401C3.46207 30.6666 3.14329 30.6032 2.84587 30.4799C2.54846 30.3567 2.27824 30.176 2.05066 29.9483C1.82307 29.7206 1.64259 29.4503 1.51951 29.1528C1.39643 28.8553 1.33317 28.5365 1.33334 28.2146V3.78392ZM12.944 12.5173H16.916V14.5119C17.4893 13.3653 18.956 12.3333 21.16 12.3333C25.3853 12.3333 26.3867 14.6173 26.3867 18.8079V26.5706H22.1107V19.7626C22.1107 17.3759 21.5373 16.0293 20.0813 16.0293C18.0613 16.0293 17.2213 17.4813 17.2213 19.7626V26.5706H12.944V12.5173ZM5.61068 26.3879H9.88801V12.3333H5.61068V26.3866V26.3879ZM10.5 7.74926C10.5081 8.11549 10.4429 8.47964 10.3083 8.82034C10.1738 9.16104 9.97248 9.47144 9.71632 9.7333C9.46016 9.99516 9.15428 10.2032 8.81662 10.3453C8.47896 10.4873 8.11633 10.5605 7.75001 10.5605C7.38369 10.5605 7.02106 10.4873 6.6834 10.3453C6.34575 10.2032 6.03986 9.99516 5.7837 9.7333C5.52754 9.47144 5.32627 9.16104 5.19169 8.82034C5.05711 8.47964 4.99195 8.11549 5.00001 7.74926C5.01584 7.03039 5.31252 6.34631 5.82652 5.8435C6.34053 5.3407 7.03098 5.05915 7.75001 5.05915C8.46905 5.05915 9.1595 5.3407 9.6735 5.8435C10.1875 6.34631 10.4842 7.03039 10.5 7.74926Z" fill="#1D1B1A"/>
</svg>
