<svg width="32" height="32" viewBox="0 0 32 32" fill="none" xmlns="http://www.w3.org/2000/svg">
<path d="M29.3333 1H2.66667C2.22464 1 1.80072 1.17559 1.48816 1.48816C1.17559 1.80072 1 2.22464 1 2.66667V29.3333C1 29.7754 1.17559 30.1993 1.48816 30.5118C1.80072 30.8244 2.22464 31 2.66667 31H29.3333C29.7754 31 30.1993 30.8244 30.5118 30.5118C30.8244 30.1993 31 29.7754 31 29.3333V2.66667C31 2.22464 30.8244 1.80072 30.5118 1.48816C30.1993 1.17559 29.7754 1 29.3333 1ZM25.9233 8.10833L24.3133 9.65C24.2453 9.70187 24.1929 9.77143 24.1617 9.85108C24.1306 9.93074 24.1219 10.0174 24.1367 10.1017V21.4367C24.1219 21.5209 24.1306 21.6076 24.1617 21.6873C24.1929 21.7669 24.2453 21.8365 24.3133 21.8883L25.8833 23.4317V23.7717H17.9817V23.4317L19.61 21.8517C19.7717 21.6917 19.7717 21.6433 19.7717 21.4V12.2367L15.245 23.73H14.6317L9.36333 12.2367V19.94C9.34253 20.1001 9.3581 20.2628 9.40889 20.416C9.45967 20.5692 9.54437 20.709 9.65667 20.825L11.775 23.3933V23.7317H5.76833V23.3933L7.88667 20.825C7.99816 20.7091 8.08096 20.5686 8.12843 20.415C8.17589 20.2613 8.1867 20.0986 8.16 19.94V11.0333C8.17246 10.9114 8.15602 10.7883 8.112 10.6739C8.06799 10.5595 7.99764 10.4571 7.90667 10.375L6.02333 8.10833V7.77H11.8667L16.3833 17.675L20.3533 7.77H25.925V8.10833H25.9233Z" fill="#1D1B1A"/>
</svg>
